<mxfile host="Electron" modified="2024-01-12T17:34:38.652Z" agent="Mozilla/5.0 (Windows NT 10.0; Win64; x64) AppleWebKit/537.36 (KHTML, like Gecko) draw.io/22.1.16 Chrome/120.0.6099.109 Electron/28.1.0 Safari/537.36" etag="KrAXKrZwznMOQaXJcwnb" version="22.1.16" type="device">
  <diagram name="Page-1" id="Js75GRjd85WWhPV1HZuS">
    <mxGraphModel dx="875" dy="524" grid="1" gridSize="10" guides="1" tooltips="1" connect="1" arrows="1" fold="1" page="1" pageScale="1" pageWidth="850" pageHeight="1100" math="0" shadow="0">
      <root>
        <mxCell id="0" />
        <mxCell id="1" parent="0" />
        <mxCell id="j1NHPNswuqCs47p-dBrJ-11" value="" style="rounded=0;whiteSpace=wrap;html=1;shadow=1;" parent="1" vertex="1">
          <mxGeometry x="300" y="170" width="170" height="200" as="geometry" />
        </mxCell>
        <mxCell id="j1NHPNswuqCs47p-dBrJ-10" value="" style="rounded=0;whiteSpace=wrap;html=1;shadow=1;" parent="1" vertex="1">
          <mxGeometry x="313" y="211" width="144" height="145" as="geometry" />
        </mxCell>
        <mxCell id="j1NHPNswuqCs47p-dBrJ-9" value="" style="rounded=0;whiteSpace=wrap;html=1;shadow=1;" parent="1" vertex="1">
          <mxGeometry x="343" y="282" width="100" height="60" as="geometry" />
        </mxCell>
        <mxCell id="j1NHPNswuqCs47p-dBrJ-1" value="Unit testing" style="shape=umlFrame;whiteSpace=wrap;html=1;pointerEvents=0;width=80;height=20;fontFamily=Computer Modern;fontStyle=2" parent="1" vertex="1">
          <mxGeometry x="343" y="282" width="100" height="60" as="geometry" />
        </mxCell>
        <mxCell id="j1NHPNswuqCs47p-dBrJ-3" value="CPU core" style="text;html=1;strokeColor=none;fillColor=none;align=center;verticalAlign=middle;whiteSpace=wrap;rounded=0;fontFamily=Computer Modern;" parent="1" vertex="1">
          <mxGeometry x="361.75" y="312" width="62.5" height="15" as="geometry" />
        </mxCell>
        <mxCell id="j1NHPNswuqCs47p-dBrJ-4" value="Functional testing" style="shape=umlFrame;whiteSpace=wrap;html=1;pointerEvents=0;width=110;height=30;fontFamily=Computer Modern;fontStyle=2" parent="1" vertex="1">
          <mxGeometry x="313" y="211" width="144" height="145" as="geometry" />
        </mxCell>
        <mxCell id="j1NHPNswuqCs47p-dBrJ-5" value="BCM2835 peripherals" style="text;html=1;strokeColor=none;fillColor=none;align=center;verticalAlign=middle;whiteSpace=wrap;rounded=0;fontFamily=Computer Modern;" parent="1" vertex="1">
          <mxGeometry x="325.5" y="251" width="115" height="20" as="geometry" />
        </mxCell>
        <mxCell id="j1NHPNswuqCs47p-dBrJ-7" value="System &amp;amp; GUI testing" style="shape=umlFrame;whiteSpace=wrap;html=1;pointerEvents=0;width=120;height=30;fontFamily=Computer Modern;fontStyle=2" parent="1" vertex="1">
          <mxGeometry x="300" y="170" width="170" height="200" as="geometry" />
        </mxCell>
        <mxCell id="j1NHPNswuqCs47p-dBrJ-12" value="&amp;nbsp; GoogleTests" style="shape=note;size=20;whiteSpace=wrap;html=1;fontFamily=Computer Modern;shadow=1;align=left;" parent="1" vertex="1">
          <mxGeometry x="510" y="282" width="100" height="31" as="geometry" />
        </mxCell>
        <mxCell id="j1NHPNswuqCs47p-dBrJ-13" value="&amp;nbsp; Set of example &lt;br&gt;&amp;nbsp; programs" style="shape=note;size=20;whiteSpace=wrap;html=1;fontFamily=Computer Modern;shadow=1;align=left;" parent="1" vertex="1">
          <mxGeometry x="510" y="223" width="110" height="41" as="geometry" />
        </mxCell>
        <mxCell id="j1NHPNswuqCs47p-dBrJ-14" value="&amp;nbsp; Performed by students&lt;br&gt;&amp;nbsp; within the KIV/OS class" style="shape=note;size=20;whiteSpace=wrap;html=1;fontFamily=Computer Modern;shadow=1;align=left;" parent="1" vertex="1">
          <mxGeometry x="510" y="171" width="150" height="40" as="geometry" />
        </mxCell>
        <mxCell id="j1NHPNswuqCs47p-dBrJ-15" value="" style="endArrow=none;dashed=1;html=1;rounded=0;entryX=0;entryY=0.5;entryDx=0;entryDy=0;entryPerimeter=0;" parent="1" target="j1NHPNswuqCs47p-dBrJ-12" edge="1">
          <mxGeometry width="50" height="50" relative="1" as="geometry">
            <mxPoint x="424" y="305.2242990654206" as="sourcePoint" />
            <mxPoint x="481" y="297.5" as="targetPoint" />
          </mxGeometry>
        </mxCell>
        <mxCell id="j1NHPNswuqCs47p-dBrJ-16" value="" style="endArrow=none;dashed=1;html=1;rounded=0;entryX=0;entryY=0.5;entryDx=0;entryDy=0;entryPerimeter=0;" parent="1" target="j1NHPNswuqCs47p-dBrJ-13" edge="1">
          <mxGeometry width="50" height="50" relative="1" as="geometry">
            <mxPoint x="440" y="240" as="sourcePoint" />
            <mxPoint x="490" y="190" as="targetPoint" />
          </mxGeometry>
        </mxCell>
        <mxCell id="j1NHPNswuqCs47p-dBrJ-17" value="" style="endArrow=none;dashed=1;html=1;rounded=0;entryX=0;entryY=0.5;entryDx=0;entryDy=0;entryPerimeter=0;" parent="1" target="j1NHPNswuqCs47p-dBrJ-14" edge="1">
          <mxGeometry width="50" height="50" relative="1" as="geometry">
            <mxPoint x="440" y="187.5" as="sourcePoint" />
            <mxPoint x="500" y="192.5" as="targetPoint" />
          </mxGeometry>
        </mxCell>
      </root>
    </mxGraphModel>
  </diagram>
</mxfile>
